<mxfile host="app.diagrams.net" modified="2022-08-01T09:24:11.613Z" agent="5.0 (Windows NT 10.0; Win64; x64) AppleWebKit/537.36 (KHTML, like Gecko) Chrome/103.0.0.0 Safari/537.36" etag="IqwEk5QXYgXuCz0Iwfpm" version="20.2.2" type="github">
  <diagram id="PNeMOdFBrKwA5Am6O1JE" name="Page-1">
    <mxGraphModel dx="1632" dy="411" grid="1" gridSize="10" guides="1" tooltips="1" connect="1" arrows="1" fold="1" page="1" pageScale="1" pageWidth="850" pageHeight="1100" math="0" shadow="0">
      <root>
        <mxCell id="0" />
        <mxCell id="1" parent="0" />
        <mxCell id="7C5h-eeYZDXvFY-OM6Qq-32" value="" style="rounded=1;whiteSpace=wrap;html=1;" vertex="1" parent="1">
          <mxGeometry x="400" y="70" width="390" height="600" as="geometry" />
        </mxCell>
        <mxCell id="7C5h-eeYZDXvFY-OM6Qq-3" style="edgeStyle=orthogonalEdgeStyle;rounded=0;orthogonalLoop=1;jettySize=auto;html=1;entryX=1;entryY=0.5;entryDx=0;entryDy=0;" edge="1" parent="1" source="7C5h-eeYZDXvFY-OM6Qq-1" target="7C5h-eeYZDXvFY-OM6Qq-2">
          <mxGeometry relative="1" as="geometry" />
        </mxCell>
        <mxCell id="7C5h-eeYZDXvFY-OM6Qq-1" value="Send Finger Print&lt;br&gt;- OS Info" style="rounded=0;whiteSpace=wrap;html=1;" vertex="1" parent="1">
          <mxGeometry x="520" y="100" width="120" height="60" as="geometry" />
        </mxCell>
        <mxCell id="7C5h-eeYZDXvFY-OM6Qq-6" style="edgeStyle=orthogonalEdgeStyle;rounded=0;orthogonalLoop=1;jettySize=auto;html=1;" edge="1" parent="1" source="7C5h-eeYZDXvFY-OM6Qq-2" target="7C5h-eeYZDXvFY-OM6Qq-5">
          <mxGeometry relative="1" as="geometry" />
        </mxCell>
        <mxCell id="7C5h-eeYZDXvFY-OM6Qq-2" value="API" style="rounded=0;whiteSpace=wrap;html=1;" vertex="1" parent="1">
          <mxGeometry x="90" y="100" width="120" height="60" as="geometry" />
        </mxCell>
        <mxCell id="7C5h-eeYZDXvFY-OM6Qq-16" style="edgeStyle=orthogonalEdgeStyle;rounded=0;orthogonalLoop=1;jettySize=auto;html=1;entryX=0;entryY=0.5;entryDx=0;entryDy=0;" edge="1" parent="1" source="7C5h-eeYZDXvFY-OM6Qq-4" target="7C5h-eeYZDXvFY-OM6Qq-15">
          <mxGeometry relative="1" as="geometry">
            <Array as="points">
              <mxPoint x="20" y="610" />
            </Array>
          </mxGeometry>
        </mxCell>
        <mxCell id="7C5h-eeYZDXvFY-OM6Qq-4" value="Hash Values" style="shape=cylinder3;whiteSpace=wrap;html=1;boundedLbl=1;backgroundOutline=1;size=15;" vertex="1" parent="1">
          <mxGeometry x="-10" y="430" width="60" height="80" as="geometry" />
        </mxCell>
        <mxCell id="7C5h-eeYZDXvFY-OM6Qq-8" style="edgeStyle=orthogonalEdgeStyle;rounded=0;orthogonalLoop=1;jettySize=auto;html=1;entryX=0;entryY=0.5;entryDx=0;entryDy=0;" edge="1" parent="1" source="7C5h-eeYZDXvFY-OM6Qq-5" target="7C5h-eeYZDXvFY-OM6Qq-7">
          <mxGeometry relative="1" as="geometry" />
        </mxCell>
        <mxCell id="7C5h-eeYZDXvFY-OM6Qq-5" value="Send Dropper File to the requestor" style="rounded=1;whiteSpace=wrap;html=1;" vertex="1" parent="1">
          <mxGeometry x="90" y="200" width="120" height="60" as="geometry" />
        </mxCell>
        <mxCell id="7C5h-eeYZDXvFY-OM6Qq-10" style="edgeStyle=orthogonalEdgeStyle;rounded=0;orthogonalLoop=1;jettySize=auto;html=1;entryX=0.5;entryY=0;entryDx=0;entryDy=0;" edge="1" parent="1" source="7C5h-eeYZDXvFY-OM6Qq-7" target="7C5h-eeYZDXvFY-OM6Qq-9">
          <mxGeometry relative="1" as="geometry" />
        </mxCell>
        <mxCell id="7C5h-eeYZDXvFY-OM6Qq-7" value="Place the file in a folder&amp;nbsp;" style="rounded=1;whiteSpace=wrap;html=1;" vertex="1" parent="1">
          <mxGeometry x="520" y="200" width="120" height="60" as="geometry" />
        </mxCell>
        <mxCell id="7C5h-eeYZDXvFY-OM6Qq-12" style="edgeStyle=orthogonalEdgeStyle;rounded=0;orthogonalLoop=1;jettySize=auto;html=1;entryX=1;entryY=0.5;entryDx=0;entryDy=0;" edge="1" parent="1" source="7C5h-eeYZDXvFY-OM6Qq-9" target="7C5h-eeYZDXvFY-OM6Qq-11">
          <mxGeometry relative="1" as="geometry" />
        </mxCell>
        <mxCell id="7C5h-eeYZDXvFY-OM6Qq-21" style="edgeStyle=orthogonalEdgeStyle;rounded=0;orthogonalLoop=1;jettySize=auto;html=1;" edge="1" parent="1" source="7C5h-eeYZDXvFY-OM6Qq-9" target="7C5h-eeYZDXvFY-OM6Qq-20">
          <mxGeometry relative="1" as="geometry" />
        </mxCell>
        <mxCell id="7C5h-eeYZDXvFY-OM6Qq-23" style="edgeStyle=orthogonalEdgeStyle;rounded=0;orthogonalLoop=1;jettySize=auto;html=1;" edge="1" parent="1" source="7C5h-eeYZDXvFY-OM6Qq-9" target="7C5h-eeYZDXvFY-OM6Qq-22">
          <mxGeometry relative="1" as="geometry" />
        </mxCell>
        <mxCell id="7C5h-eeYZDXvFY-OM6Qq-9" value="Send the Hash of Dropper" style="rounded=1;whiteSpace=wrap;html=1;" vertex="1" parent="1">
          <mxGeometry x="520" y="320" width="120" height="60" as="geometry" />
        </mxCell>
        <mxCell id="7C5h-eeYZDXvFY-OM6Qq-17" style="edgeStyle=orthogonalEdgeStyle;rounded=0;orthogonalLoop=1;jettySize=auto;html=1;entryX=0.5;entryY=0;entryDx=0;entryDy=0;" edge="1" parent="1" source="7C5h-eeYZDXvFY-OM6Qq-11" target="7C5h-eeYZDXvFY-OM6Qq-13">
          <mxGeometry relative="1" as="geometry" />
        </mxCell>
        <mxCell id="7C5h-eeYZDXvFY-OM6Qq-11" value="API" style="rounded=0;whiteSpace=wrap;html=1;" vertex="1" parent="1">
          <mxGeometry x="90" y="320" width="120" height="60" as="geometry" />
        </mxCell>
        <mxCell id="7C5h-eeYZDXvFY-OM6Qq-14" style="edgeStyle=orthogonalEdgeStyle;rounded=0;orthogonalLoop=1;jettySize=auto;html=1;entryX=1;entryY=0.5;entryDx=0;entryDy=0;entryPerimeter=0;" edge="1" parent="1" source="7C5h-eeYZDXvFY-OM6Qq-13" target="7C5h-eeYZDXvFY-OM6Qq-4">
          <mxGeometry relative="1" as="geometry" />
        </mxCell>
        <mxCell id="7C5h-eeYZDXvFY-OM6Qq-13" value="Compare hash values" style="rounded=1;whiteSpace=wrap;html=1;" vertex="1" parent="1">
          <mxGeometry x="90" y="440" width="120" height="60" as="geometry" />
        </mxCell>
        <mxCell id="7C5h-eeYZDXvFY-OM6Qq-18" style="edgeStyle=orthogonalEdgeStyle;rounded=0;orthogonalLoop=1;jettySize=auto;html=1;entryX=0;entryY=0.75;entryDx=0;entryDy=0;" edge="1" parent="1" source="7C5h-eeYZDXvFY-OM6Qq-15" target="7C5h-eeYZDXvFY-OM6Qq-9">
          <mxGeometry relative="1" as="geometry" />
        </mxCell>
        <mxCell id="7C5h-eeYZDXvFY-OM6Qq-15" value="Check if the hash matches" style="rounded=1;whiteSpace=wrap;html=1;" vertex="1" parent="1">
          <mxGeometry x="90" y="580" width="120" height="60" as="geometry" />
        </mxCell>
        <mxCell id="7C5h-eeYZDXvFY-OM6Qq-19" value="True / FALSE" style="text;html=1;strokeColor=none;fillColor=none;align=center;verticalAlign=middle;whiteSpace=wrap;rounded=0;" vertex="1" parent="1">
          <mxGeometry x="290" y="570" width="60" height="30" as="geometry" />
        </mxCell>
        <mxCell id="7C5h-eeYZDXvFY-OM6Qq-25" style="edgeStyle=orthogonalEdgeStyle;rounded=0;orthogonalLoop=1;jettySize=auto;html=1;" edge="1" parent="1" source="7C5h-eeYZDXvFY-OM6Qq-20" target="7C5h-eeYZDXvFY-OM6Qq-24">
          <mxGeometry relative="1" as="geometry" />
        </mxCell>
        <mxCell id="7C5h-eeYZDXvFY-OM6Qq-20" value="True" style="rounded=1;whiteSpace=wrap;html=1;" vertex="1" parent="1">
          <mxGeometry x="470" y="440" width="120" height="60" as="geometry" />
        </mxCell>
        <mxCell id="7C5h-eeYZDXvFY-OM6Qq-27" style="edgeStyle=orthogonalEdgeStyle;rounded=0;orthogonalLoop=1;jettySize=auto;html=1;entryX=0;entryY=0.5;entryDx=0;entryDy=0;" edge="1" parent="1" source="7C5h-eeYZDXvFY-OM6Qq-22" target="7C5h-eeYZDXvFY-OM6Qq-26">
          <mxGeometry relative="1" as="geometry" />
        </mxCell>
        <mxCell id="7C5h-eeYZDXvFY-OM6Qq-22" value="False" style="rounded=1;whiteSpace=wrap;html=1;" vertex="1" parent="1">
          <mxGeometry x="610" y="440" width="120" height="60" as="geometry" />
        </mxCell>
        <mxCell id="7C5h-eeYZDXvFY-OM6Qq-24" value="Dropper.exe" style="rounded=1;whiteSpace=wrap;html=1;" vertex="1" parent="1">
          <mxGeometry x="470" y="750" width="120" height="60" as="geometry" />
        </mxCell>
        <mxCell id="7C5h-eeYZDXvFY-OM6Qq-26" value="Updater" style="rounded=1;whiteSpace=wrap;html=1;" vertex="1" parent="1">
          <mxGeometry x="890" y="90" width="120" height="60" as="geometry" />
        </mxCell>
        <mxCell id="7C5h-eeYZDXvFY-OM6Qq-28" value="Call Updater" style="text;html=1;strokeColor=none;fillColor=none;align=center;verticalAlign=middle;whiteSpace=wrap;rounded=0;" vertex="1" parent="1">
          <mxGeometry x="740" y="430" width="60" height="30" as="geometry" />
        </mxCell>
        <mxCell id="7C5h-eeYZDXvFY-OM6Qq-29" value="" style="endArrow=none;dashed=1;html=1;dashPattern=1 3;strokeWidth=2;rounded=0;" edge="1" parent="1">
          <mxGeometry width="50" height="50" relative="1" as="geometry">
            <mxPoint x="350" y="804" as="sourcePoint" />
            <mxPoint x="350" y="40" as="targetPoint" />
          </mxGeometry>
        </mxCell>
        <mxCell id="7C5h-eeYZDXvFY-OM6Qq-30" value="Server Side" style="text;html=1;strokeColor=none;fillColor=none;align=center;verticalAlign=middle;whiteSpace=wrap;rounded=0;" vertex="1" parent="1">
          <mxGeometry x="140" y="40" width="90" height="30" as="geometry" />
        </mxCell>
        <mxCell id="7C5h-eeYZDXvFY-OM6Qq-31" value="Client Side" style="text;html=1;strokeColor=none;fillColor=none;align=center;verticalAlign=middle;whiteSpace=wrap;rounded=0;" vertex="1" parent="1">
          <mxGeometry x="625" y="50" width="90" height="30" as="geometry" />
        </mxCell>
        <mxCell id="7C5h-eeYZDXvFY-OM6Qq-33" value="Call Dropper" style="text;html=1;strokeColor=none;fillColor=none;align=center;verticalAlign=middle;whiteSpace=wrap;rounded=0;" vertex="1" parent="1">
          <mxGeometry x="520" y="595" width="100" height="30" as="geometry" />
        </mxCell>
        <mxCell id="7C5h-eeYZDXvFY-OM6Qq-34" value="Initial Exe" style="text;html=1;strokeColor=none;fillColor=none;align=center;verticalAlign=middle;whiteSpace=wrap;rounded=0;" vertex="1" parent="1">
          <mxGeometry x="680" y="90" width="60" height="30" as="geometry" />
        </mxCell>
        <mxCell id="7C5h-eeYZDXvFY-OM6Qq-36" style="edgeStyle=orthogonalEdgeStyle;rounded=0;orthogonalLoop=1;jettySize=auto;html=1;entryX=0;entryY=0.5;entryDx=0;entryDy=0;entryPerimeter=0;" edge="1" parent="1" source="7C5h-eeYZDXvFY-OM6Qq-35" target="7C5h-eeYZDXvFY-OM6Qq-4">
          <mxGeometry relative="1" as="geometry" />
        </mxCell>
        <mxCell id="7C5h-eeYZDXvFY-OM6Qq-35" value="ADMIN" style="shape=umlActor;verticalLabelPosition=bottom;verticalAlign=top;html=1;outlineConnect=0;" vertex="1" parent="1">
          <mxGeometry x="-120" y="440" width="30" height="60" as="geometry" />
        </mxCell>
      </root>
    </mxGraphModel>
  </diagram>
</mxfile>
